 <svg width="324" height="79" viewBox="0 0 325 79" fill="none" xmlns="http://www.w3.org/2000/svg">
                                        <path d="M13.532 67.04H15.062V68.606H13.532V71H11.858V68.606H5.432V67.04L9.95 58.4H11.75L7.232 67.04H11.858V63.476H13.532V67.04ZM24.2698 62.396C24.2698 63.38 24.0118 64.226 23.4958 64.934H23.5138L19.4458 71H17.5558L20.5438 66.59C20.1838 66.614 19.9798 66.626 19.9318 66.626C18.6598 66.626 17.6158 66.236 16.7998 65.456C15.9958 64.664 15.5938 63.644 15.5938 62.396C15.5938 61.136 15.9958 60.122 16.7998 59.354C17.6038 58.562 18.6478 58.166 19.9318 58.166C21.1918 58.166 22.2298 58.562 23.0458 59.354C23.8618 60.134 24.2698 61.148 24.2698 62.396ZM19.9318 59.768C19.1398 59.768 18.4918 60.008 17.9878 60.488C17.4958 60.968 17.2498 61.604 17.2498 62.396C17.2498 63.188 17.4958 63.83 17.9878 64.322C18.4918 64.802 19.1398 65.042 19.9318 65.042C20.7238 65.042 21.3658 64.802 21.8578 64.322C22.3618 63.83 22.6138 63.188 22.6138 62.396C22.6138 61.604 22.3678 60.968 21.8758 60.488C21.3838 60.008 20.7358 59.768 19.9318 59.768ZM33.9554 62.396C33.9554 63.38 33.6974 64.226 33.1814 64.934H33.1994L29.1314 71H27.2414L30.2294 66.59C29.8694 66.614 29.6654 66.626 29.6174 66.626C28.3454 66.626 27.3014 66.236 26.4854 65.456C25.6814 64.664 25.2794 63.644 25.2794 62.396C25.2794 61.136 25.6814 60.122 26.4854 59.354C27.2894 58.562 28.3334 58.166 29.6174 58.166C30.8774 58.166 31.9154 58.562 32.7314 59.354C33.5474 60.134 33.9554 61.148 33.9554 62.396ZM29.6174 59.768C28.8254 59.768 28.1774 60.008 27.6734 60.488C27.1814 60.968 26.9354 61.604 26.9354 62.396C26.9354 63.188 27.1814 63.83 27.6734 64.322C28.1774 64.802 28.8254 65.042 29.6174 65.042C30.4094 65.042 31.0514 64.802 31.5434 64.322C32.0474 63.83 32.2994 63.188 32.2994 62.396C32.2994 61.604 32.0534 60.968 31.5614 60.488C31.0694 60.008 30.4214 59.768 29.6174 59.768Z" fill="#969696" />
                                        <path d="M286.252 59.552L289.564 58.4H291.004V71H289.348V60.2L286.666 60.992L286.252 59.552ZM301.2 71H293.064V69.632L297.51 65.096C298.698 63.908 299.292 62.888 299.292 62.036C299.292 61.34 299.076 60.794 298.644 60.398C298.224 59.99 297.696 59.786 297.06 59.786C295.872 59.786 295.008 60.35 294.468 61.478L293.064 60.65C293.448 59.846 293.988 59.234 294.684 58.814C295.38 58.382 296.166 58.166 297.042 58.166C298.11 58.166 299.028 58.514 299.796 59.21C300.576 59.918 300.966 60.854 300.966 62.018C300.966 63.29 300.216 64.676 298.716 66.176L295.494 69.38H301.2V71ZM310.984 69.452C310.144 70.64 308.95 71.234 307.402 71.234C305.854 71.234 304.66 70.64 303.82 69.452C302.968 68.252 302.542 66.668 302.542 64.7C302.542 62.732 302.968 61.148 303.82 59.948C304.66 58.76 305.854 58.166 307.402 58.166C308.95 58.166 310.144 58.76 310.984 59.948C311.836 61.148 312.262 62.732 312.262 64.7C312.262 66.668 311.836 68.252 310.984 69.452ZM304.216 64.7C304.216 66.26 304.492 67.466 305.044 68.318C305.596 69.17 306.382 69.596 307.402 69.596C308.422 69.596 309.208 69.17 309.76 68.318C310.324 67.466 310.606 66.26 310.606 64.7C310.606 63.14 310.324 61.934 309.76 61.082C309.208 60.218 308.422 59.786 307.402 59.786C306.382 59.786 305.596 60.212 305.044 61.064C304.492 61.916 304.216 63.128 304.216 64.7ZM322.322 69.452C321.482 70.64 320.288 71.234 318.74 71.234C317.192 71.234 315.998 70.64 315.158 69.452C314.306 68.252 313.88 66.668 313.88 64.7C313.88 62.732 314.306 61.148 315.158 59.948C315.998 58.76 317.192 58.166 318.74 58.166C320.288 58.166 321.482 58.76 322.322 59.948C323.174 61.148 323.6 62.732 323.6 64.7C323.6 66.668 323.174 68.252 322.322 69.452ZM315.554 64.7C315.554 66.26 315.83 67.466 316.382 68.318C316.934 69.17 317.72 69.596 318.74 69.596C319.76 69.596 320.546 69.17 321.098 68.318C321.662 67.466 321.944 66.26 321.944 64.7C321.944 63.14 321.662 61.934 321.098 61.082C320.546 60.218 319.76 59.786 318.74 59.786C317.72 59.786 316.934 60.212 316.382 61.064C315.83 61.916 315.554 63.128 315.554 64.7Z" fill="#969696" />
                                        <g filter="url(#filter0_b_14_290)">
                                            <rect x="5" y="40" width="320" height="4" rx="2" fill="#6252E2" fill-opacity="0.3" />
                                        </g>
                                        <rect x="5" y="40" width="150" height="4" rx="1" fill="url(#paint0_linear_14_290)" />
                                        <g filter="url(#filter1_f_14_290)">
                                            <rect x="5" y="40" width="150" height="4" rx="1" fill="url(#paint1_linear_14_290)" />
                                        </g>
                                        <defs>
                                            <filter id="filter0_b_14_290" x="-5" y="30" width="340" height="24" filterUnits="userSpaceOnUse" color-interpolation-filters="sRGB">
                                                <feFlood flood-opacity="0" result="BackgroundImageFix" />
                                                <feGaussianBlur in="BackgroundImageFix" stdDeviation="5" />
                                                <feComposite in2="SourceAlpha" operator="in" result="effect1_backgroundBlur_14_290" />
                                                <feBlend mode="normal" in="SourceGraphic" in2="effect1_backgroundBlur_14_290" result="shape" />
                                            </filter>
                                            <filter id="filter1_f_14_290" x="0" y="35" width="160" height="14" filterUnits="userSpaceOnUse" color-interpolation-filters="sRGB">
                                                <feFlood flood-opacity="0" result="BackgroundImageFix" />
                                                <feBlend mode="normal" in="SourceGraphic" in2="BackgroundImageFix" result="shape" />
                                                <feGaussianBlur stdDeviation="2.5" result="effect1_foregroundBlur_14_290" />
                                            </filter>
                                            <linearGradient id="paint0_linear_14_290" x1="9.78724" y1="40" x2="15.5632" y2="70.4496" gradientUnits="userSpaceOnUse">
                                                <stop stop-color="#E9E6FB" />
                                                <stop offset="0.298547" stop-color="#B1A6F5" />
                                                <stop offset="0.646264" stop-color="#6252E2" />
                                                <stop offset="1" stop-color="#3DB7CF" />
                                            </linearGradient>
                                            <linearGradient id="paint1_linear_14_290" x1="9.78724" y1="40" x2="15.5632" y2="70.4496" gradientUnits="userSpaceOnUse">
                                                <stop stop-color="#E9E6FB" />
                                                <stop offset="0.298547" stop-color="#B1A6F5" />
                                                <stop offset="0.646264" stop-color="#6252E2" />
                                                <stop offset="1" stop-color="#3DB7CF" />
                                            </linearGradient>
                                        </defs>
                                    </svg>