<svg className='-mt-5 hidden xl:block' width="550" height="79" viewBox="0 0 566 79" fill="none" xmlns="http://www.w3.org/2000/svg">
                                        <path d="M13.532 67.04H15.062V68.606H13.532V71H11.858V68.606H5.432V67.04L9.95 58.4H11.75L7.232 67.04H11.858V63.476H13.532V67.04ZM24.2698 62.396C24.2698 63.38 24.0118 64.226 23.4958 64.934H23.5138L19.4458 71H17.5558L20.5438 66.59C20.1838 66.614 19.9798 66.626 19.9318 66.626C18.6598 66.626 17.6158 66.236 16.7998 65.456C15.9958 64.664 15.5938 63.644 15.5938 62.396C15.5938 61.136 15.9958 60.122 16.7998 59.354C17.6038 58.562 18.6478 58.166 19.9318 58.166C21.1918 58.166 22.2298 58.562 23.0458 59.354C23.8618 60.134 24.2698 61.148 24.2698 62.396ZM19.9318 59.768C19.1398 59.768 18.4918 60.008 17.9878 60.488C17.4958 60.968 17.2498 61.604 17.2498 62.396C17.2498 63.188 17.4958 63.83 17.9878 64.322C18.4918 64.802 19.1398 65.042 19.9318 65.042C20.7238 65.042 21.3658 64.802 21.8578 64.322C22.3618 63.83 22.6138 63.188 22.6138 62.396C22.6138 61.604 22.3678 60.968 21.8758 60.488C21.3838 60.008 20.7358 59.768 19.9318 59.768ZM33.9554 62.396C33.9554 63.38 33.6974 64.226 33.1814 64.934H33.1994L29.1314 71H27.2414L30.2294 66.59C29.8694 66.614 29.6654 66.626 29.6174 66.626C28.3454 66.626 27.3014 66.236 26.4854 65.456C25.6814 64.664 25.2794 63.644 25.2794 62.396C25.2794 61.136 25.6814 60.122 26.4854 59.354C27.2894 58.562 28.3334 58.166 29.6174 58.166C30.8774 58.166 31.9154 58.562 32.7314 59.354C33.5474 60.134 33.9554 61.148 33.9554 62.396ZM29.6174 59.768C28.8254 59.768 28.1774 60.008 27.6734 60.488C27.1814 60.968 26.9354 61.604 26.9354 62.396C26.9354 63.188 27.1814 63.83 27.6734 64.322C28.1774 64.802 28.8254 65.042 29.6174 65.042C30.4094 65.042 31.0514 64.802 31.5434 64.322C32.0474 63.83 32.2994 63.188 32.2994 62.396C32.2994 61.604 32.0534 60.968 31.5614 60.488C31.0694 60.008 30.4214 59.768 29.6174 59.768Z" fill="#969696" />
                                        <path d="M527.252 59.552L530.564 58.4H532.004V71H530.348V60.2L527.666 60.992L527.252 59.552ZM542.2 71H534.064V69.632L538.51 65.096C539.698 63.908 540.292 62.888 540.292 62.036C540.292 61.34 540.076 60.794 539.644 60.398C539.224 59.99 538.696 59.786 538.06 59.786C536.872 59.786 536.008 60.35 535.468 61.478L534.064 60.65C534.448 59.846 534.988 59.234 535.684 58.814C536.38 58.382 537.166 58.166 538.042 58.166C539.11 58.166 540.028 58.514 540.796 59.21C541.576 59.918 541.966 60.854 541.966 62.018C541.966 63.29 541.216 64.676 539.716 66.176L536.494 69.38H542.2V71ZM551.984 69.452C551.144 70.64 549.95 71.234 548.402 71.234C546.854 71.234 545.66 70.64 544.82 69.452C543.968 68.252 543.542 66.668 543.542 64.7C543.542 62.732 543.968 61.148 544.82 59.948C545.66 58.76 546.854 58.166 548.402 58.166C549.95 58.166 551.144 58.76 551.984 59.948C552.836 61.148 553.262 62.732 553.262 64.7C553.262 66.668 552.836 68.252 551.984 69.452ZM545.216 64.7C545.216 66.26 545.492 67.466 546.044 68.318C546.596 69.17 547.382 69.596 548.402 69.596C549.422 69.596 550.208 69.17 550.76 68.318C551.324 67.466 551.606 66.26 551.606 64.7C551.606 63.14 551.324 61.934 550.76 61.082C550.208 60.218 549.422 59.786 548.402 59.786C547.382 59.786 546.596 60.212 546.044 61.064C545.492 61.916 545.216 63.128 545.216 64.7ZM563.322 69.452C562.482 70.64 561.288 71.234 559.74 71.234C558.192 71.234 556.998 70.64 556.158 69.452C555.306 68.252 554.88 66.668 554.88 64.7C554.88 62.732 555.306 61.148 556.158 59.948C556.998 58.76 558.192 58.166 559.74 58.166C561.288 58.166 562.482 58.76 563.322 59.948C564.174 61.148 564.6 62.732 564.6 64.7C564.6 66.668 564.174 68.252 563.322 69.452ZM556.554 64.7C556.554 66.26 556.83 67.466 557.382 68.318C557.934 69.17 558.72 69.596 559.74 69.596C560.76 69.596 561.546 69.17 562.098 68.318C562.662 67.466 562.944 66.26 562.944 64.7C562.944 63.14 562.662 61.934 562.098 61.082C561.546 60.218 560.76 59.786 559.74 59.786C558.72 59.786 557.934 60.212 557.382 61.064C556.83 61.916 556.554 63.128 556.554 64.7Z" fill="#969696" />
                                        <g filter="url(#filter0_b_14_851)">
                                            <rect x="5" y="40" width="560" height="4" rx="2" fill="#6252E2" fill-opacity="0.3" />
                                        </g>
                                        <rect x="5" y="40" width="260" height="4" rx="1" fill="url(#paint0_linear_14_851)" />
                                        <g filter="url(#filter1_f_14_851)">
                                            <rect x="5" y="40" width="260" height="4" rx="1" fill="url(#paint1_linear_14_851)" />
                                        </g>
                                        <defs>
                                            <filter id="filter0_b_14_851" x="-5" y="30" width="580" height="24" filterUnits="userSpaceOnUse" colorInterpolationFilters="sRGB">
                                                <feFlood floodOpacity="0" result="BackgroundImageFix" />
                                                <feGaussianBlur in="BackgroundImageFix" stdDeviation="5" />
                                                <feComposite in2="SourceAlpha" operator="in" result="effect1_backgroundBlur_14_851" />
                                                <feBlend mode="normal" in="SourceGraphic" in2="effect1_backgroundBlur_14_851" result="shape" />
                                            </filter>
                                            <filter id="filter1_f_14_851" x="0" y="35" width="270" height="14" filterUnits="userSpaceOnUse" colorInterpolationFilters="sRGB">
                                                <feFlood floodOpacity="0" result="BackgroundImageFix" />
                                                <feBlend mode="normal" in="SourceGraphic" in2="BackgroundImageFix" result="shape" />
                                                <feGaussianBlur stdDeviation="2.5" result="effect1_foregroundBlur_14_851" />
                                            </filter>
                                            <linearGradient id="paint0_linear_14_851" x1="13.2979" y1="40" x2="16.7092" y2="71.1719" gradientUnits="userSpaceOnUse">
                                                <stop stopColor="#E9E6FB" />
                                                <stop offset="0.298547" stopColor="#B1A6F5" />
                                                <stop offset="0.646264" stopColor="#6252E2" />
                                                <stop offset="1" stopColor="#3DB7CF" />
                                            </linearGradient>
                                            <linearGradient id="paint1_linear_14_851" x1="13.2979" y1="40" x2="16.7092" y2="71.1719" gradientUnits="userSpaceOnUse">
                                                <stop stopColor="#E9E6FB" />
                                                <stop offset="0.298547" stopColor="#B1A6F5" />
                                                <stop offset="0.646264" stopColor="#6252E2" />
                                                <stop offset="1" stopColor="#3DB7CF" />
                                            </linearGradient>
                                        </defs>
                                    </svg>