<svg className='-mt-0.5' width="131" height="40" viewBox="0 0 131 40" fill="none" xmlns="http://www.w3.org/2000/svg">
<path fill-rule="evenodd" clip-rule="evenodd" d="M34.6853 23.9332C34.6853 32.2544 28.04 39 19.8426 39C11.6453 39 5 32.2544 5 23.9332C5.76231 15.4581 10.4582 8.33825 14.1029 5.59286C15.2851 4.70236 15.3687 5.16336 15.5515 6.17184C15.5954 6.41429 15.6451 6.68838 15.7172 6.98294C15.9956 6.08609 19.7978 1.82613 23.43 2.0055C23.5787 2.20515 23.7887 2.5436 23.43 3.88885C24.3268 3.21623 25.0561 3.0817 25.4479 3.0817C26.3238 3.27634 26.0262 5.0199 25.7947 6.37689C25.7061 6.89566 25.6272 7.35793 25.6272 7.65557C25.6832 7.62757 25.7721 7.58 25.8869 7.51852L25.887 7.51847C26.6918 7.08759 28.7717 5.97398 29.7527 6.13094C30.2101 6.36811 30.2003 6.77806 30.1827 7.51554C30.1537 8.73021 30.1035 10.8334 32.0845 14.5164C34.6853 19.0006 34.6853 20.7748 34.6853 23.9332ZM10.8742 25.563C12.1868 25.563 13.2509 24.3784 13.2509 22.9173C10.3451 21.9128 8.85636 22.4838 8.49763 22.9173C8.49763 24.3784 9.56167 25.563 10.8742 25.563ZM22.3538 23.2999C22.2192 24.4658 21.1043 25.5868 19.6184 25.5868C18.1325 25.5868 17.0624 24.2324 17.0624 22.6721C18.1386 22.2237 20.7036 21.7215 22.3538 23.2999Z" fill="#FDFEFF" />
</svg>